<?xml version="1.0" standalone="no"?>
<!DOCTYPE svg PUBLIC "-//W3C//DTD SVG 20010904//EN"
 "http://www.w3.org/TR/2001/REC-SVG-20010904/DTD/svg10.dtd">
<svg version="1.0" xmlns="http://www.w3.org/2000/svg"
 width="500.000000pt" height="500.000000pt" viewBox="0 0 500.000000 500.000000"
 preserveAspectRatio="xMidYMid meet">
<metadata>
Created by potrace 1.14, written by Peter Selinger 2001-2017
</metadata>
<g transform="translate(0.000000,500.000000) scale(0.100000,-0.100000)"
fill="#000000" stroke="none">
<path d="M1571 3831 c46 -15 69 -31 84 -61 13 -25 15 -111 15 -606 l0 -576
-34 -34 c-19 -19 -43 -34 -54 -34 -12 0 -24 -5 -27 -11 -5 -7 94 -10 341 -7
l349 3 62 29 c73 33 144 104 176 174 34 73 31 198 -6 274 -36 74 -120 151
-188 173 l-51 17 51 18 c75 25 140 84 181 165 32 61 35 76 35 149 0 66 -5 91
-27 137 -33 72 -95 134 -167 168 l-56 26 -355 2 c-195 1 -343 -2 -329 -6z
m689 -48 c55 -63 84 -161 83 -283 -1 -128 -28 -214 -87 -275 l-43 -45 -186 0
-187 0 0 270 c0 290 -4 315 -51 359 l-24 22 229 -3 228 -3 38 -42z m-43 -630
c76 -36 127 -161 126 -313 -1 -108 -19 -184 -62 -252 -45 -71 -70 -78 -270
-78 l-171 0 0 330 0 330 171 0 c139 0 178 -3 206 -17z"/>
<path d="M3855 2978 c-22 -5 -224 -13 -450 -18 -488 -10 -548 -19 -718 -107
-215 -113 -259 -338 -80 -420 155 -71 321 -20 474 145 63 68 137 187 125 199
-3 4 -7 4 -9 2 -2 -2 -20 -27 -40 -55 -50 -69 -153 -164 -218 -202 -112 -63
-273 -85 -340 -46 -140 82 -82 265 115 366 111 56 190 71 391 70 119 -1 234
-8 340 -21 88 -12 183 -21 212 -21 100 0 207 34 261 83 41 37 22 45 -63 25z"/>
<path d="M3460 2799 c-140 -90 -239 -207 -405 -476 -126 -202 -186 -283 -279
-371 -124 -118 -268 -177 -461 -188 -227 -14 -406 59 -471 192 -92 188 60 408
323 470 143 34 298 -2 359 -81 36 -48 45 -134 20 -199 -23 -59 -97 -127 -172
-157 -83 -33 -223 -33 -307 0 -65 25 -88 22 -35 -5 184 -95 454 -22 534 144
47 99 20 224 -64 287 -210 161 -569 72 -688 -171 -25 -51 -29 -71 -29 -144 0
-103 22 -157 90 -225 155 -156 493 -178 784 -52 111 48 185 100 287 201 103
104 125 136 257 373 157 283 217 363 308 409 27 13 49 27 49 29 0 16 -45 0
-100 -36z"/>
</g>
</svg>
